<?xml version="1.0" standalone="no"?>
<!DOCTYPE svg PUBLIC "-//W3C//DTD SVG 20010904//EN"
 "http://www.w3.org/TR/2001/REC-SVG-20010904/DTD/svg10.dtd">
<svg version="1.0" xmlns="http://www.w3.org/2000/svg"
 width="1254.000000pt" height="1254.000000pt" viewBox="0 0 1254.000000 1254.000000"
 preserveAspectRatio="xMidYMid meet">
<metadata>
Created by potrace 1.16, written by Peter Selinger 2001-2019
</metadata>
<g transform="translate(0.000000,1254.000000) scale(0.100000,-0.100000)"
fill="#000000" stroke="none">
<path d="M0 6270 l0 -6270 6270 0 6270 0 0 6270 0 6270 -6270 0 -6270 0 0
-6270z m4887 5093 c-4 -3 -206 -7 -449 -8 -559 -2 -731 -5 -693 -14 17 -4 29
-13 27 -20 -1 -7 2 -10 8 -6 6 3 7 11 4 17 -4 6 3 5 16 -2 18 -10 24 -9 31 1
7 11 9 11 9 1 0 -8 8 -10 24 -6 13 3 27 1 30 -5 4 -5 13 -8 21 -5 8 4 13 10
10 14 -3 5 3 7 12 6 10 -2 23 -16 30 -32 10 -23 12 -25 13 -9 1 11 4 15 6 8 3
-7 13 -9 21 -6 12 5 15 2 10 -9 -3 -10 0 -19 9 -22 8 -3 14 -11 14 -18 0 -9
-3 -8 -10 2 -8 12 -10 11 -10 -6 0 -12 -6 -27 -14 -33 -12 -10 -14 -6 -11 24
4 38 -8 46 -24 17 -11 -21 -4 -62 11 -62 6 0 8 -6 5 -14 -3 -7 2 -24 11 -37
14 -21 14 -22 0 -16 -19 7 -43 -17 -33 -33 4 -6 -4 -10 -19 -10 -37 0 -56 -10
-56 -31 0 -13 7 -19 21 -19 13 0 18 -4 13 -12 -5 -9 -2 -9 9 1 9 7 17 9 17 3
0 -14 -25 -33 -33 -25 -4 3 -7 -2 -7 -12 0 -14 3 -15 15 -5 13 11 14 10 9 -4
-3 -9 -2 -16 4 -16 6 0 9 8 8 17 -2 10 3 23 10 30 15 16 12 45 -6 51 -8 3 -10
0 -5 -8 5 -9 4 -11 -3 -6 -18 11 -14 26 6 26 10 0 25 -11 32 -25 7 -14 15 -23
18 -20 3 2 -2 15 -11 29 -14 21 -15 25 -1 30 8 3 13 2 10 -2 -2 -4 1 -18 8
-31 9 -15 16 -20 20 -12 4 6 2 11 -4 11 -7 0 -10 5 -8 11 6 19 23 10 23 -13 1
-13 6 -22 14 -20 7 1 10 -2 7 -7 -4 -5 -18 -8 -32 -5 -18 3 -25 1 -21 -8 2 -7
9 -12 15 -11 6 2 9 -3 6 -11 -6 -17 -26 -15 -48 3 -16 13 -21 7 -18 -20 1 -4
-8 -15 -19 -25 -18 -16 -19 -16 -13 -1 3 10 1 17 -5 17 -11 0 -14 -9 -14 -42
0 -22 -4 -22 -23 -4 -12 13 -12 16 2 24 12 7 13 11 5 16 -7 4 -18 2 -26 -4 -8
-7 -15 -9 -15 -5 0 4 8 14 18 21 15 11 12 12 -17 4 -19 -5 -38 -15 -42 -22 -5
-8 -7 1 -6 21 1 19 -3 36 -10 38 -16 6 -9 -52 8 -73 9 -12 7 -14 -16 -14 -21
0 -26 -4 -21 -16 4 -9 2 -22 -4 -29 -7 -9 -6 -16 5 -25 13 -11 13 -16 -3 -43
-13 -22 -14 -31 -4 -34 23 -9 12 -20 -18 -18 -16 1 -27 -2 -24 -7 3 -5 -6 -7
-20 -4 -15 3 -24 1 -21 -5 4 -5 13 -9 21 -9 8 0 12 -5 9 -10 -4 -7 -13 -6 -27
1 -16 9 -24 7 -41 -12 -17 -18 -18 -21 -4 -16 24 9 21 -5 -5 -28 -15 -12 -18
-20 -10 -23 7 -2 12 -8 12 -14 0 -6 -7 -8 -15 -5 -8 4 -17 1 -21 -5 -4 -7 -3
-8 4 -4 7 4 12 1 12 -8 0 -9 -5 -16 -11 -16 -5 0 -8 -3 -5 -8 6 -11 -22 -47
-31 -38 -4 4 -1 11 7 16 8 6 10 10 4 10 -6 0 -17 -7 -24 -15 -10 -12 -15 -13
-20 -4 -5 8 -18 1 -40 -20 -18 -17 -38 -31 -44 -31 -6 1 -1 9 12 19 23 20 30
51 11 51 -5 0 -7 -5 -4 -10 3 -6 0 -17 -9 -25 -19 -19 -27 -19 -19 1 5 14 3
14 -16 3 -14 -9 -17 -15 -9 -18 7 -2 17 -10 21 -18 5 -8 16 -11 26 -8 17 5 19
-3 12 -57 -1 -5 -6 -8 -12 -8 -5 0 -7 5 -3 12 5 7 3 8 -6 3 -10 -6 -10 -11 3
-20 9 -7 13 -16 9 -21 -4 -4 1 -3 10 5 10 7 14 19 11 28 -5 12 -3 14 7 8 10
-6 11 -4 4 6 -13 21 -12 52 4 71 10 12 26 16 58 13 25 -1 44 2 44 7 0 6 8 4
17 -3 9 -8 14 -9 10 -2 -4 6 -1 14 5 16 7 3 4 6 -7 6 -18 1 -17 3 8 19 15 10
25 21 23 23 -3 3 4 5 14 6 11 1 20 -2 20 -8 0 -5 -4 -9 -10 -9 -5 0 -17 -15
-26 -32 -10 -21 -11 -28 -3 -20 25 24 32 12 8 -15 l-24 -28 28 24 c24 22 32
21 28 -1 0 -5 4 -8 11 -8 6 0 3 -7 -8 -16 -28 -23 -12 -14 118 60 82 47 115
72 111 82 -3 8 -7 14 -10 14 -3 0 -3 -6 0 -14 4 -10 0 -14 -13 -13 -10 1 -16
5 -14 9 3 4 0 8 -7 8 -7 0 -9 -8 -6 -21 3 -13 1 -19 -6 -16 -7 3 -10 11 -8 18
2 8 4 19 4 25 0 6 10 10 21 9 12 -1 29 2 38 6 11 6 22 4 32 -7 9 -8 17 -13 17
-10 1 3 3 11 4 16 1 6 3 13 4 18 1 4 5 2 9 -5 9 -14 87 25 87 44 0 6 4 15 9
20 5 5 6 3 2 -4 -14 -25 11 -12 151 80 303 198 417 282 407 299 -4 7 -2 8 5 4
12 -8 129 77 239 172 43 38 59 58 50 63 -6 4 -15 6 -19 3 -4 -2 -10 0 -14 6
-4 7 123 10 386 10 216 0 390 -2 387 -5 -3 -3 -91 -5 -196 -5 l-191 -1 -63
-65 c-102 -107 -387 -341 -570 -469 -155 -108 -489 -329 -543 -359 -16 -9 -43
-25 -60 -35 -32 -20 -36 -22 -350 -202 -181 -105 -575 -323 -650 -361 -85 -43
-292 -156 -380 -208 -55 -32 -130 -75 -167 -97 -119 -68 -217 -127 -214 -131
2 -1 15 2 29 7 22 9 25 7 24 -9 -1 -14 -5 -16 -13 -9 -8 7 -15 6 -20 -2 -4 -7
-3 -9 3 -6 6 4 14 0 17 -9 3 -8 2 -13 -3 -9 -5 3 -12 -1 -15 -7 -5 -10 -7 -10
-12 0 -5 10 -10 8 -21 -7 -8 -12 -25 -21 -39 -21 -14 0 -24 -6 -24 -14 0 -8
-9 -18 -20 -21 -11 -3 -20 -12 -20 -20 0 -8 -8 -11 -22 -8 -23 4 -23 4 -3 -11
18 -15 20 -15 30 1 6 11 23 19 43 19 37 2 41 -6 12 -24 -12 -7 -20 -8 -20 -2
0 5 -8 10 -17 10 -16 -1 -16 -2 1 -15 11 -8 16 -18 12 -22 -4 -4 -11 -1 -17 7
-8 13 -10 13 -19 0 -7 -11 -10 -11 -10 -2 0 7 -4 10 -10 7 -6 -4 -5 -11 3 -20
6 -7 14 -9 15 -4 6 16 23 10 20 -7 -2 -10 3 -18 10 -20 7 -1 8 0 3 2 -16 9 26
47 43 41 9 -4 16 -2 16 3 0 6 -4 10 -10 10 -5 0 2 12 15 26 14 15 21 32 18 42
-4 13 -2 12 10 -3 9 -11 19 -16 24 -11 4 5 2 11 -4 13 -7 3 -13 12 -13 21 0
13 4 11 20 -6 25 -26 28 -27 26 -6 0 9 6 19 14 21 13 4 13 3 0 -6 -13 -10 -13
-12 0 -20 8 -5 18 -8 22 -5 13 8 -4 -60 -21 -82 -14 -18 -19 -19 -29 -7 -7 7
-11 17 -7 22 8 13 -4 39 -21 45 -12 5 -14 -1 -8 -28 11 -62 -15 -98 -56 -76
-13 7 -21 7 -25 -1 -4 -6 -13 -8 -21 -5 -20 8 -29 -21 -13 -40 7 -8 8 -14 3
-13 -28 5 -54 -3 -54 -16 0 -8 -4 -15 -9 -15 -23 0 -41 14 -41 31 0 16 -2 18
-14 7 -10 -9 -11 -15 -2 -20 8 -5 8 -10 -2 -20 -18 -18 -36 5 -36 47 0 27 -4
35 -17 35 -10 0 -21 -5 -25 -12 -4 -6 -3 -8 3 -5 6 4 13 1 16 -6 4 -10 -2 -13
-18 -9 -14 2 -22 10 -20 20 1 10 0 11 -2 4 -3 -7 -9 -9 -15 -6 -6 4 -8 2 -5
-3 9 -14 -40 -46 -54 -37 -8 4 -8 0 0 -14 14 -27 14 -39 -1 -24 -7 7 -17 12
-22 12 -6 0 -3 -5 7 -11 18 -10 18 -12 0 -32 -16 -19 -16 -20 0 -8 10 8 17 9
17 3 0 -6 9 -14 20 -17 12 -4 17 -11 13 -18 -4 -7 1 -6 10 2 12 9 17 10 17 2
0 -7 5 -9 11 -5 7 4 9 -1 7 -12 -2 -11 -10 -18 -17 -16 -7 1 -9 -2 -5 -9 4 -7
0 -9 -14 -5 -11 4 -23 2 -27 -4 -3 -5 -2 -10 4 -10 6 0 -2 -20 -17 -44 -22
-35 -28 -40 -34 -26 -3 10 -21 28 -39 41 -18 12 -29 18 -25 11 4 -7 1 -12 -9
-12 -13 0 -14 4 -5 20 13 24 18 25 42 3 11 -10 18 -12 18 -4 0 6 -6 14 -14 17
-9 3 -12 14 -8 27 4 17 -1 14 -24 -13 -16 -19 -33 -37 -37 -39 -4 -1 0 -9 10
-16 13 -9 22 -10 30 -3 9 7 13 7 13 0 0 -6 -5 -14 -10 -17 -6 -4 -7 -11 -4
-17 4 -6 1 -9 -7 -6 -8 3 -22 -6 -33 -19 -17 -23 -17 -25 -1 -43 23 -25 28
-70 9 -71 -8 -1 -18 -3 -24 -4 -5 -1 -19 -3 -30 -4 -13 -1 -20 -8 -20 -22 0
-18 2 -19 15 -9 12 10 18 10 26 2 5 -7 6 -10 3 -7 -17 12 -43 -17 -41 -45 2
-31 11 -38 23 -19 5 8 9 7 15 -4 10 -18 2 -47 -13 -47 -6 0 -5 7 2 15 23 27 2
28 -25 1 -14 -14 -32 -26 -40 -26 -8 0 -15 -4 -15 -10 0 -5 5 -10 12 -10 6 0
9 -2 6 -5 -11 -12 -39 8 -33 23 3 9 3 13 -1 10 -4 -4 -15 -3 -25 2 -12 7 -20
6 -25 -2 -4 -6 -3 -8 4 -4 6 3 13 2 16 -3 3 -5 -2 -12 -11 -15 -12 -5 -13 -10
-5 -18 18 -18 -5 -40 -28 -26 -17 11 -17 48 0 48 5 0 7 12 5 28 -2 15 -4 31
-4 35 -1 5 -11 5 -23 2 -18 -5 -20 -4 -8 4 8 6 10 11 4 11 -23 0 -23 -14 -2
-38 13 -14 17 -22 11 -18 -8 4 -13 1 -13 -8 0 -8 -7 -22 -16 -30 -9 -9 -11
-16 -4 -16 6 0 8 -5 4 -11 -10 -17 -21 6 -18 41 1 16 -2 30 -7 30 -4 0 -6 7
-3 15 4 8 1 15 -5 15 -8 0 -12 -420 -14 -1522 -2 -1377 -2 -1353 -2 247 1 974
4 1788 7 1810 58 376 138 618 307 922 102 186 239 371 403 544 117 125 346
302 513 398 216 124 531 248 599 236 23 -4 26 -3 11 4 -18 7 -17 9 10 13 17 3
77 15 135 28 58 12 148 25 200 30 118 9 1246 12 1237 3z m3938 -13 c0 -8 2
-17 5 -20 18 -18 73 -105 97 -155 70 -143 392 -709 602 -1058 237 -394 293
-482 467 -745 102 -155 164 -245 299 -431 33 -46 67 -93 75 -104 8 -12 55 -74
104 -137 49 -63 114 -146 143 -185 59 -77 150 -184 261 -307 39 -45 72 -84 72
-88 0 -10 -38 -23 -70 -24 -21 -1 -25 -5 -23 -31 l2 -30 -15 25 c-9 14 -13 17
-10 7 3 -10 1 -28 -6 -40 -11 -21 -10 -21 8 -7 18 14 18 14 3 -5 -9 -11 -14
-26 -12 -32 9 -26 -7 -11 -77 73 -43 51 -62 79 -47 69 22 -14 30 -15 42 -5 8
7 15 9 15 4 1 -5 10 2 20 15 11 13 20 19 20 14 0 -5 9 -9 21 -10 20 -2 20 -1
5 16 -13 15 -14 18 -1 18 8 0 12 -4 9 -9 -3 -4 -1 -8 4 -8 5 0 10 12 10 26 0
15 -4 21 -8 14 -5 -8 -9 -7 -13 4 -4 9 -3 15 1 13 4 -1 7 3 7 8 0 6 -4 9 -8 7
-5 -1 -6 2 -3 7 8 12 -34 42 -47 34 -6 -3 -7 -1 -3 5 4 7 1 12 -9 12 -10 0
-13 -5 -9 -12 8 -14 -14 1 -54 36 -20 17 -21 22 -8 41 11 17 11 24 1 38 -18
25 -22 21 -19 -15 2 -18 1 -25 -2 -15 -3 9 -10 15 -15 12 -5 -4 -9 -1 -9 4 0
6 5 11 12 11 9 0 9 3 1 11 -6 6 -9 18 -6 25 5 14 -1 18 -50 28 -17 4 -31 16
-37 31 -7 19 -17 25 -39 25 -16 0 -32 -4 -36 -9 -8 -13 24 -42 38 -34 7 3 9 2
4 -2 -4 -5 1 -17 10 -28 17 -17 17 -20 1 -31 -15 -11 -15 -13 2 -24 17 -10 18
-9 13 6 -5 14 -3 15 7 5 11 -10 17 -10 28 0 12 10 14 9 10 -3 -3 -8 2 -21 11
-28 9 -8 10 -11 4 -7 -7 3 -13 1 -13 -4 0 -6 4 -11 8 -11 5 0 9 -7 9 -15 0
-11 -4 -12 -11 -5 -5 5 -19 10 -29 10 -16 0 -17 -2 -7 -15 7 -9 10 -18 7 -22
-4 -3 -2 -14 4 -25 37 -69 -97 85 -273 314 -305 395 -701 982 -948 1403 -29
50 -63 106 -75 125 -54 86 -177 300 -350 610 -103 184 -218 389 -255 455 -74
131 -100 181 -100 190 0 3 53 4 118 3 96 -2 117 -6 117 -18z m-890 -3535 l0
-440 -580 -5 -580 -5 -3 -1577 -2 -1578 -500 0 -500 0 0 1580 0 1580 -580 0
-580 0 0 445 0 445 1663 -2 1662 -3 0 -440z m3145 136 c0 -20 -4 -31 -8 -26
-4 6 -11 10 -17 10 -16 -1 -36 -16 -31 -23 2 -4 -2 -13 -10 -19 -8 -8 -15 -9
-19 -3 -4 6 -11 8 -16 4 -5 -3 -7 -10 -3 -15 3 -6 3 -22 -1 -36 l-6 -26 -35
34 c-36 34 -66 78 -46 65 6 -3 18 1 26 10 12 11 16 12 16 2 1 -7 8 -2 16 12 8
14 13 17 10 8 -7 -23 -3 -23 20 4 10 12 13 18 5 13 -10 -5 -12 -4 -7 3 4 7 14
12 22 12 8 0 13 3 11 8 -3 4 -1 18 4 31 l10 24 29 -28 c22 -22 30 -38 30 -64z
m-9513 -2926 c53 -76 158 -241 225 -355 131 -220 181 -306 313 -540 23 -41 52
-93 65 -115 100 -177 132 -235 201 -362 17 -32 37 -67 44 -78 7 -11 70 -123
140 -250 144 -259 191 -341 348 -605 110 -184 156 -257 320 -506 85 -129 100
-156 75 -137 -15 11 -28 11 -47 -1 -11 -7 -13 -5 -8 7 4 11 2 14 -9 10 -7 -3
-14 0 -14 7 0 6 -5 8 -11 4 -8 -5 -6 -10 5 -16 9 -5 16 -14 16 -21 0 -8 -3 -8
-8 -2 -13 19 -51 15 -57 -6 -4 -11 -10 -17 -14 -15 -28 18 20 -79 74 -149 40
-52 46 -59 41 -49 -3 7 1 14 8 17 8 3 16 1 18 -5 2 -6 10 -8 16 -4 17 11 5 25
-17 21 -12 -2 -21 3 -24 14 -5 20 20 25 42 7 12 -9 13 -8 8 6 -4 10 -2 18 5
18 7 0 6 5 -2 15 -7 8 -11 15 -9 16 31 6 38 6 34 -1 -3 -5 -1 -11 4 -15 6 -3
7 -13 4 -21 -5 -13 -7 -13 -14 -2 -7 10 -9 10 -10 -2 -4 -42 -7 -57 -13 -76
-6 -20 9 -35 38 -38 5 -1 15 -11 24 -24 8 -13 11 -22 6 -21 -5 1 -17 1 -26 0
-16 -1 -15 -4 3 -36 12 -19 32 -38 45 -41 19 -5 23 -11 19 -25 -5 -14 -2 -17
9 -13 12 5 15 2 10 -10 -5 -12 -2 -15 10 -10 18 7 20 18 6 44 -7 14 -6 17 8
16 10 0 16 5 14 14 -3 11 0 12 8 4 13 -13 2 -46 -14 -38 -6 3 -4 0 5 -8 9 -7
19 -31 22 -53 4 -27 3 -35 -3 -25 -6 9 -10 10 -10 3 0 -19 21 -27 32 -12 8 12
9 11 5 -1 -2 -8 -12 -14 -21 -14 -9 1 -16 -2 -16 -7 0 -5 4 -9 9 -9 6 0 18
-14 28 -30 10 -18 23 -28 31 -25 8 3 12 0 9 -7 -2 -7 5 -25 15 -40 35 -50 12
-29 -33 29 -24 31 -55 68 -68 82 -35 38 -199 253 -255 335 -27 39 -69 97 -93
129 -24 32 -103 149 -177 260 -218 331 -363 578 -786 1337 -227 408 -332 593
-482 843 -32 54 -58 100 -58 102 0 5 -76 125 -142 223 l-28 43 0 191 0 192 43
-70 c24 -38 52 -83 64 -99z"/>
</g>
</svg>
